<svg xmlns="http://www.w3.org/2000/svg" width="1920" height="1080" viewBox="0 0 1920 1080" version="1.1">
	<path d="M 1213.748 356.500 C 1213.390 359.250, 1212.561 371.850, 1211.904 384.500 C 1211.248 397.150, 1210.405 408.089, 1210.033 408.808 C 1209.555 409.731, 1206.187 407.568, 1198.603 401.467 C 1192.689 396.709, 1187.655 393.012, 1187.416 393.251 C 1187.177 393.490, 1191.017 398.650, 1195.948 404.718 L 1204.914 415.751 1199.207 416.341 C 1196.068 416.665, 1183.037 417.479, 1170.250 418.150 C 1157.463 418.820, 1147 419.657, 1147 420.008 C 1147 420.360, 1157.237 421.229, 1169.750 421.940 C 1182.263 422.650, 1195.285 423.517, 1198.688 423.866 L 1204.876 424.500 1195.988 435.467 C 1191.100 441.499, 1187.295 446.629, 1187.533 446.866 C 1187.770 447.103, 1192.517 443.600, 1198.081 439.081 C 1203.645 434.562, 1208.380 431.047, 1208.603 431.269 C 1208.826 431.492, 1209.568 434.335, 1210.254 437.587 C 1211.160 441.884, 1211.500 458.118, 1211.500 497 C 1211.500 544.942, 1211.317 551.175, 1209.740 557 C 1201.920 585.876, 1180.032 602.033, 1148.792 601.988 C 1123.970 601.953, 1108.189 588.116, 1100.875 559.976 C 1098.754 551.815, 1098.656 549.339, 1098.259 493.391 C 1097.828 432.662, 1098.172 426.001, 1102.006 420.790 C 1103.103 419.300, 1104 417.613, 1104 417.040 C 1104 416.363, 1098.415 416, 1088 416 C 1074.299 416, 1072 416.220, 1072 417.531 C 1072 418.374, 1072.652 419.313, 1073.449 419.619 C 1074.245 419.924, 1075.575 422.273, 1076.403 424.837 C 1077.656 428.716, 1077.971 439.417, 1078.278 488.500 C 1078.630 544.770, 1078.745 547.853, 1080.752 555.130 C 1086.331 575.355, 1097.032 588.895, 1114.042 597.251 C 1128.083 604.148, 1133.933 605.461, 1150.500 605.433 C 1166.187 605.406, 1171.498 604.247, 1183.500 598.234 C 1196.651 591.644, 1206.987 578.174, 1212.081 560.984 C 1214.163 553.957, 1214.344 550.810, 1215.042 509.500 C 1215.748 467.713, 1217.390 433.912, 1218.839 431.323 C 1219.272 430.549, 1223.120 433.068, 1229.914 438.573 C 1235.640 443.213, 1240.518 446.816, 1240.754 446.580 C 1240.990 446.343, 1237.305 441.329, 1232.564 435.436 C 1227.824 429.543, 1224.070 424.596, 1224.224 424.443 C 1224.572 424.095, 1271.833 420.981, 1275.681 421.052 L 1278.500 421.105 1276 422.799 C 1261.774 432.442, 1253.936 448.892, 1255.271 466.302 C 1256.998 488.807, 1272.985 505.510, 1304.368 517.596 C 1335.749 529.681, 1351.694 541.875, 1357.938 558.563 C 1360.314 564.914, 1360.609 574.549, 1358.600 580.175 C 1354.534 591.560, 1341.187 600.401, 1324.055 603.059 C 1311.815 604.959, 1300.192 601.249, 1287.726 591.465 C 1276.920 582.983, 1261.326 562.486, 1253.984 547.114 C 1250.140 539.066, 1247.685 537.847, 1246.202 543.250 C 1245.711 545.038, 1244.274 550.428, 1243.009 555.230 L 1240.708 563.960 1243.520 568.230 C 1245.066 570.578, 1249.301 575.478, 1252.930 579.118 C 1273.147 599.394, 1305.586 610.507, 1330.072 605.546 C 1347.350 602.045, 1360.743 592.286, 1367.805 578.052 C 1371.473 570.658, 1371.500 570.513, 1371.500 558.052 C 1371.500 546.081, 1371.356 545.199, 1368.401 539 C 1360.663 522.769, 1347.242 512.233, 1321.327 502.046 C 1297.716 492.765, 1287.539 486.747, 1278.229 476.560 C 1270.867 468.505, 1267.759 461.558, 1267.201 451.909 C 1266.794 444.883, 1267.032 443.455, 1269.423 438.568 C 1275.365 426.423, 1290.108 418.175, 1307.500 417.265 C 1315.009 416.872, 1317.428 417.146, 1322.104 418.914 C 1338.029 424.939, 1350.546 439.991, 1359.594 464 C 1361.356 468.675, 1363.447 472.632, 1364.241 472.793 C 1365.307 473.009, 1366.539 469.840, 1368.958 460.659 L 1372.232 448.232 1367.926 441.866 C 1354.833 422.513, 1337.262 413.902, 1310.500 413.726 C 1298.654 413.648, 1296.790 413.891, 1289.500 416.472 L 1281.500 419.304 1257 418.021 C 1243.525 417.315, 1230.582 416.460, 1228.238 416.119 L 1223.976 415.500 1233.014 404.250 C 1237.985 398.063, 1241.703 393.011, 1241.276 393.024 C 1240.849 393.037, 1235.438 397.088, 1229.250 402.025 C 1218.248 410.804, 1218 410.938, 1218 408.111 C 1218 404.186, 1215.027 354.881, 1214.677 353 C 1214.523 352.175, 1214.105 353.750, 1213.748 356.500 M 546 417.500 C 546 418.325, 546.853 419.853, 547.895 420.895 C 551.743 424.743, 552 430.361, 552 510.500 C 552 590.639, 551.743 596.257, 547.895 600.105 C 546.853 601.147, 546 602.675, 546 603.500 C 546 604.816, 553.167 605, 604.500 605 L 663 605 663 593 C 663 579.680, 662.593 579.018, 656.898 583.072 C 651.203 587.128, 632.989 595.019, 623.320 597.620 C 614.616 599.962, 611.139 600.316, 592.718 600.733 L 571.937 601.203 572.218 514.352 C 572.475 435.140, 572.649 427.170, 574.199 423.750 C 575.133 421.688, 576.371 420, 576.949 420 C 577.527 420, 578 419.100, 578 418 C 578 416.083, 577.333 416, 562 416 C 548.444 416, 546 416.229, 546 417.500 M 678 417.441 C 678 418.234, 678.453 419.162, 679.007 419.504 C 679.561 419.847, 680.799 421.561, 681.757 423.313 C 683.341 426.209, 683.554 432.065, 684.086 487.500 C 684.743 555.809, 684.592 554.269, 692.186 570 C 698.057 582.162, 707.152 591.095, 720 597.320 C 732.196 603.229, 739.021 605.015, 752.046 605.705 C 775.721 606.960, 796.140 598.471, 807.398 582.696 C 812.448 575.619, 815.115 569.907, 818.213 559.539 C 820.194 552.909, 820.358 549.307, 821.048 497.500 C 821.652 452.140, 822.065 441.293, 823.403 435.615 C 825.201 427.988, 828.175 420.628, 829.887 419.570 C 830.499 419.192, 831 418.234, 831 417.441 C 831 416.270, 828.846 416, 819.500 416 C 810.154 416, 808 416.270, 808 417.441 C 808 418.234, 808.501 419.192, 809.113 419.570 C 810.812 420.620, 813.787 427.951, 815.625 435.615 C 817.004 441.369, 817.348 450.447, 817.714 490.881 C 818.014 523.940, 817.790 541.987, 817.008 547.866 C 812.608 580.931, 791.997 600.061, 758.974 601.730 C 746.935 602.338, 740.422 601.248, 732.275 597.258 C 719.929 591.213, 711.582 578.895, 706.352 559 C 704.858 553.318, 704.594 545.134, 704.250 494 C 704.034 461.825, 704.144 433.156, 704.495 430.291 C 704.860 427.314, 706.176 423.546, 707.567 421.497 C 708.905 419.525, 710 417.481, 710 416.956 C 710 416.388, 703.504 416, 694 416 C 680.736 416, 678 416.246, 678 417.441 M 847 417.018 C 847 417.578, 849.282 422.585, 852.072 428.143 L 857.144 438.251 856.728 507.375 C 856.360 568.471, 856.110 577.371, 854.576 584 C 852.536 592.817, 849.644 599.809, 847.339 601.494 C 843.866 604.034, 846.959 605, 858.559 605 C 868.062 605, 870 604.746, 870 603.500 C 870 602.675, 869.126 601.126, 868.058 600.058 C 865.501 597.501, 862.345 587.080, 861.007 576.777 C 860.313 571.430, 860.033 546.722, 860.216 506.972 L 860.500 445.443 898.723 524.972 L 936.946 604.500 947.973 604.783 C 954.038 604.938, 959 604.872, 959 604.637 C 959 604.401, 957.376 600.788, 955.391 596.608 C 951.996 589.458, 951.863 588.811, 953.141 585.655 C 953.889 583.810, 971.600 546.802, 992.500 503.415 L 1030.500 424.531 1030.756 505.007 C 1030.919 556.143, 1030.643 587.492, 1030 590.992 C 1029.443 594.021, 1028.091 597.719, 1026.994 599.210 C 1022.893 604.782, 1023.419 605, 1041 605 C 1056.333 605, 1057 604.917, 1057 603 C 1057 601.900, 1056.562 601, 1056.026 601 C 1055.490 601, 1054.252 599.538, 1053.276 597.750 C 1051.624 594.727, 1051.478 588.852, 1051.185 513.500 C 1050.857 429.066, 1051.064 424.062, 1055.046 420.458 C 1059.406 416.513, 1057.843 415.924, 1043.795 416.221 L 1030.590 416.500 990.545 499.670 C 968.520 545.414, 950.243 583.096, 949.928 583.409 C 949.614 583.721, 931.170 546.182, 908.941 499.988 L 868.525 416 857.763 416 C 851.126 416, 847 416.390, 847 417.018 M 819.500 786.710 C 818.400 786.983, 816.712 787.905, 815.750 788.758 C 814.163 790.165, 814 790.156, 814 788.655 C 814 787.605, 813.177 787, 811.750 787 L 809.500 787 809.661 804.250 L 809.823 821.500 818.170 821.483 C 827.731 821.464, 831.952 819.678, 835.747 814.048 C 837.528 811.405, 838 809.300, 838 804 C 838 798.700, 837.528 796.595, 835.747 793.952 C 832.199 788.688, 824.806 785.392, 819.500 786.710 M 921.686 787.006 C 920.138 787.476, 918.226 788.398, 917.436 789.053 C 916.288 790.006, 916 789.919, 916 788.622 C 916 787.607, 915.159 787, 913.750 787 L 911.500 787 911.710 804.250 L 911.921 821.500 920.210 821.481 C 930.824 821.457, 935.490 819.316, 938.823 812.942 C 943.023 804.909, 940.426 793.247, 933.500 789.039 C 929.631 786.688, 925.228 785.930, 921.686 787.006 M 1096.750 787.870 C 1093.796 789.378, 1093 789.489, 1093 788.392 C 1093 787.615, 1092.006 787, 1090.750 787 L 1088.500 787 1088.673 804.250 L 1088.845 821.500 1094.892 821.797 C 1107.297 822.406, 1114.994 817.854, 1117.044 808.694 C 1117.923 804.765, 1117.928 802.445, 1117.062 799.231 C 1115.850 794.731, 1111.024 788.417, 1108.188 787.622 C 1102.468 786.019, 1100.282 786.066, 1096.750 787.870 M 1188.284 786.701 C 1185.531 787.234, 1181 792.475, 1181 795.126 C 1181 799.293, 1183.880 802.709, 1189.704 805.449 C 1192.892 806.948, 1196.513 809.114, 1197.750 810.262 C 1202.142 814.335, 1199.420 820, 1193.071 820 C 1189.725 820, 1185.481 816.602, 1181.832 811 L 1180.203 808.500 1179.479 811.305 C 1178.557 814.881, 1181.522 818.270, 1187.608 820.594 C 1195.661 823.670, 1203.029 819.844, 1202.978 812.615 C 1202.947 808.323, 1200.553 805.721, 1193.322 802.120 C 1187.401 799.172, 1184 795.960, 1184 793.316 C 1184 791.298, 1188.191 788, 1190.754 788 C 1194.503 788, 1196.824 789.736, 1199.155 794.283 L 1201.316 798.500 1202.265 795.679 C 1203.054 793.332, 1202.830 792.448, 1200.931 790.427 C 1199.019 788.391, 1192.748 785.685, 1191 786.142 C 1190.725 786.214, 1189.503 786.465, 1188.284 786.701 M 717.500 804 L 717.500 821 720.046 821 L 722.592 821 722.177 811.500 L 721.761 802 729.449 802 L 737.137 802 736.819 811.502 L 736.500 821.004 739.500 821.002 L 742.500 821 742.500 804 L 742.500 787 739.500 786.998 L 736.500 786.996 736.835 793.498 L 737.171 800 729.448 800 L 721.726 800 722.248 793.500 C 722.769 787.013, 722.765 787, 720.135 787 L 717.500 787 717.500 804 M 756 789.227 C 756 791.968, 749.093 812.986, 746.622 817.765 C 745.002 820.898, 745.013 821, 746.974 821 C 748.427 821, 749 820.343, 749 818.678 C 749 815.017, 751.981 807.221, 753.622 806.592 C 754.441 806.277, 756.635 806.656, 758.497 807.434 C 762.023 808.908, 766 815.017, 766 818.960 C 766 820.638, 766.643 821, 769.622 821 C 772.470 821, 773.016 820.724, 772.172 819.708 C 771.582 818.997, 768.677 811.459, 765.715 802.958 C 761.173 789.919, 759.992 787.450, 758.165 787.180 C 756.465 786.930, 756 787.369, 756 789.227 M 775 787.878 C 775 788.360, 775.675 789.315, 776.500 790 C 777.685 790.983, 778 793.833, 778 803.557 C 778 810.329, 777.561 817.024, 777.025 818.435 C 776.146 820.746, 776.287 821, 778.444 821 C 780.693 821, 780.781 820.789, 779.884 817.542 C 779.359 815.640, 779.058 809.477, 779.215 803.845 L 779.500 793.607 790.054 807.054 C 798.351 817.626, 801.184 820.568, 803.304 820.816 C 806.283 821.166, 806.813 819.919, 804.500 818 C 803.308 817.011, 803 814.097, 803 803.812 C 803 796.693, 803.466 789.998, 804.035 788.934 C 804.918 787.284, 804.734 787, 802.785 786.999 C 800.506 786.997, 800.501 787.034, 800.769 800.249 C 801.029 813.029, 800.976 813.426, 799.269 811.411 C 798.296 810.262, 793.554 804.299, 788.731 798.161 C 781.770 789.303, 779.450 787, 777.481 787 C 776.116 787, 775 787.395, 775 787.878 M 841.500 803.999 C 841.500 818.442, 841.726 820.999, 843 821.001 C 844.266 821.002, 844.468 819.010, 844.297 808.251 L 844.093 795.500 850.261 808.250 C 855.569 819.224, 856.757 821, 858.782 821 C 860.549 821, 861.009 820.564, 860.629 819.250 C 860.341 818.253, 863.086 811.690, 867.009 804 L 873.896 790.500 873.948 803.185 C 873.976 810.162, 873.561 817.024, 873.025 818.435 C 872.103 820.860, 872.226 821, 875.275 821 L 878.500 821 878.500 804 L 878.500 787 875.991 787 C 873.744 787, 872.747 788.540, 866.441 801.750 L 859.400 816.500 852.266 801.750 C 846.963 790.787, 844.665 787, 843.316 787 C 841.633 786.999, 841.500 788.241, 841.500 803.999 M 892.579 788.346 C 893.170 789.884, 884.688 815.300, 882.439 818.733 C 881.028 820.887, 881.082 821, 883.536 821 C 884.988 821, 885.850 820.566, 885.505 820.008 C 884.526 818.425, 888.241 807.942, 890.141 806.925 C 894.070 804.822, 899.972 809.836, 902.159 817.135 C 903.145 820.428, 903.732 821, 906.123 821 L 908.929 821 907.119 816.750 C 906.124 814.413, 903.403 806.763, 901.072 799.750 C 897.221 788.164, 896.617 787, 894.449 787 C 892.860 787, 892.235 787.450, 892.579 788.346 M 951.575 789.209 C 946.927 791.922, 943 798.671, 943 803.945 C 943 808.422, 946.621 815.744, 950.080 818.259 C 955.559 822.245, 964.698 822.394, 970.502 818.591 C 973.252 816.789, 976.344 811.494, 975.704 809.682 C 975.474 809.032, 974.582 810.158, 973.722 812.184 C 971.818 816.667, 967.678 819, 961.626 819 C 954.913 819, 949.582 813.913, 947.584 805.602 L 946.888 802.705 955.944 803.388 C 964.658 804.046, 965 803.994, 965 802 C 965 800.008, 964.655 799.954, 956.029 800.605 L 947.059 801.283 947.923 798.268 C 950.188 790.370, 955.382 786.899, 961.978 788.875 C 965.535 789.941, 970.152 794.085, 971.267 797.213 C 971.879 798.928, 972.692 798.073, 973.496 794.871 C 975.122 788.394, 959.768 784.428, 951.575 789.209 M 998.180 788.682 C 988.850 793.279, 985.962 807.048, 992.659 815.006 C 996.217 819.235, 1000.504 821.231, 1006.029 821.231 C 1014.014 821.231, 1019.657 817.469, 1021.376 811 C 1021.993 808.678, 1021.950 808.640, 1020.770 810.476 C 1020.071 811.563, 1018.082 813.925, 1016.350 815.726 C 1013.652 818.530, 1012.513 819, 1008.412 819 C 1002.988 819, 998.221 816.338, 995.550 811.816 C 993.065 807.609, 992.497 800.140, 994.328 795.757 C 995.919 791.950, 1001.011 788.010, 1004.349 788.004 C 1007.734 787.997, 1013.164 791.277, 1015.345 794.647 C 1017.925 798.632, 1018.616 798.790, 1019.238 795.537 C 1019.727 792.975, 1017.626 790.345, 1013.316 788.125 C 1010.141 786.490, 1002.022 786.788, 998.180 788.682 M 1035.579 788.346 C 1036.170 789.884, 1027.688 815.300, 1025.439 818.733 C 1024.028 820.887, 1024.082 821, 1026.536 821 C 1027.988 821, 1028.850 820.566, 1028.505 820.008 C 1027.526 818.425, 1031.241 807.942, 1033.141 806.925 C 1037.070 804.822, 1042.972 809.836, 1045.159 817.135 C 1046.145 820.428, 1046.732 821, 1049.123 821 L 1051.929 821 1050.119 816.750 C 1049.124 814.413, 1046.403 806.763, 1044.072 799.750 C 1040.221 788.164, 1039.617 787, 1037.449 787 C 1035.860 787, 1035.235 787.450, 1035.579 788.346 M 1055.385 789.465 C 1056.656 791.404, 1057 794.615, 1057 804.531 C 1057 811.461, 1056.534 818.002, 1055.965 819.066 C 1055.063 820.751, 1055.269 821, 1057.572 821 C 1059.695 821, 1060.073 820.657, 1059.495 819.250 C 1058.200 816.098, 1057.587 793.627, 1058.817 794.387 C 1059.424 794.762, 1064.503 800.904, 1070.103 808.035 C 1079.158 819.565, 1080.621 821, 1083.317 821 L 1086.349 821 1084.174 818.686 C 1082.189 816.572, 1082 815.319, 1082 804.251 C 1082 797.584, 1082.439 790.976, 1082.975 789.565 C 1083.866 787.222, 1083.727 787, 1081.368 787 C 1079.269 787, 1078.937 787.327, 1079.592 788.750 C 1080.035 789.712, 1080.547 795.900, 1080.731 802.500 C 1081.055 814.137, 1081.011 814.434, 1079.282 812.318 C 1078.302 811.119, 1073.450 804.946, 1068.500 798.602 C 1060.794 788.725, 1059.088 787.062, 1056.635 787.033 C 1053.818 787.001, 1053.797 787.042, 1055.385 789.465 M 1120.500 804 L 1120.500 821 1127 821.011 C 1130.575 821.017, 1135.188 821.301, 1137.250 821.642 C 1140.790 822.227, 1141 822.114, 1141 819.631 C 1141 816.580, 1140.502 816.474, 1135.654 818.500 C 1133.680 819.325, 1130.444 820, 1128.465 820 L 1124.865 820 1125.183 803.499 L 1125.500 786.997 1123 786.999 L 1120.500 787 1120.500 804 M 1154.001 788.123 C 1150.774 789.410, 1147.182 792.786, 1145.405 796.200 C 1143.283 800.278, 1143.624 808.559, 1146.094 812.954 C 1151.169 821.983, 1164.828 824.243, 1172.201 817.273 C 1175.071 814.560, 1177.589 809, 1175.948 809 C 1175.427 809, 1175 809.720, 1175 810.600 C 1175 811.480, 1173.470 813.730, 1171.600 815.600 C 1168.666 818.534, 1167.535 818.999, 1163.350 818.996 C 1160.301 818.994, 1157.308 818.266, 1155.290 817.035 C 1151.927 814.985, 1148 808.523, 1148 805.040 C 1148 803.300, 1148.625 803.006, 1152.250 803.044 C 1154.588 803.068, 1158.412 803.457, 1160.750 803.909 C 1164.786 804.690, 1165 804.612, 1165 802.360 C 1165 799.999, 1164.961 799.991, 1156.500 800.642 C 1148.449 801.261, 1148 801.189, 1148 799.295 C 1148 796.392, 1152.127 790.715, 1155.372 789.155 C 1159.921 786.968, 1164.330 788.432, 1168.930 793.658 C 1172.041 797.192, 1173.106 797.886, 1173.569 796.681 C 1175.461 791.750, 1169.508 786.965, 1161.602 787.063 C 1158.796 787.098, 1155.375 787.575, 1154.001 788.123 M 816.750 789.982 L 814 792.145 814 805.966 C 814 821.392, 814.103 821.609, 820.884 820.391 C 828.982 818.937, 834 812.724, 834 804.152 C 834 792.652, 823.902 784.356, 816.750 789.982 M 920.235 789.037 C 916.812 790.412, 916 793.952, 916 807.498 C 916 821.534, 916.205 821.863, 923.905 820.133 C 932.522 818.196, 936.398 813.192, 936.398 804 C 936.398 797.387, 934.148 792.671, 929.701 789.960 C 926.242 787.850, 923.785 787.611, 920.235 789.037 M 1095.455 790.455 C 1093.091 792.818, 1093 793.410, 1093 806.387 C 1093 821.667, 1093.123 821.881, 1100.905 820.133 C 1109.310 818.244, 1113 813.272, 1113 803.833 C 1113 797.121, 1110.464 792.080, 1105.915 789.752 C 1101.245 787.360, 1098.354 787.555, 1095.455 790.455 M 755.166 798.288 C 752.534 805.319, 752.540 805, 755.050 805 C 756.177 805, 758.428 805.687, 760.051 806.526 L 763.003 808.053 760.654 801.776 C 759.363 798.324, 758.087 794.825, 757.819 794 C 757.541 793.144, 756.402 794.984, 755.166 798.288 M 891.687 798.325 C 889.603 804.934, 889.604 804.999, 891.750 805.006 C 892.712 805.010, 894.785 805.682, 896.355 806.501 C 898.412 807.574, 899.082 807.642, 898.751 806.745 C 898.498 806.060, 897.495 803.025, 896.523 800 C 895.550 796.975, 894.444 794.157, 894.064 793.737 C 893.684 793.317, 892.615 795.382, 891.687 798.325 M 1034.687 798.325 C 1032.603 804.934, 1032.604 804.999, 1034.750 805.006 C 1035.713 805.010, 1037.785 805.682, 1039.355 806.501 C 1041.412 807.574, 1042.082 807.642, 1041.751 806.745 C 1041.498 806.060, 1040.495 803.025, 1039.523 800 C 1038.550 796.975, 1037.444 794.157, 1037.064 793.737 C 1036.684 793.317, 1035.615 795.382, 1034.687 798.325" stroke="none" fill="#daa520" fill-rule="evenodd"/>
</svg>